<?xml version="1.0" encoding="utf-8"?>
<!-- Generator: Adobe Illustrator 25.4.1, SVG Export Plug-In . SVG Version: 6.00 Build 0)  -->
<svg version="1.1" id="Слой_2" xmlns="http://www.w3.org/2000/svg" xmlns:xlink="http://www.w3.org/1999/xlink" x="0px" y="0px"
	 width="3000px" height="1700px" viewBox="0 0 3000 1700" style="enable-background:new 0 0 3000 1700;" xml:space="preserve">
<style type="text/css">
	.st0{fill:#AED1C7;}
	.st1{fill:#82B7A8;}
	.st2{fill:#FBBA00;}
	.st3{fill:#FFFFFF;}
	.st4{fill:#AFCDFB;}
	.st5{fill:#9ABCEF;}
	.st6{fill:#F99746;}
	.st7{fill:#EFCBAB;}
	.st8{fill:#CCA07F;}
	.st9{fill:#FFB27D;}
	.st10{fill:#1F266B;}
	.st11{fill:#ED985F;}
	.st12{fill:#ED7D2B;}
	.st13{fill:#233862;}
	.st14{fill:#C94C43;}
	.st15{fill:#B23B38;}
	.st16{fill:#6BB7BF;}
	.st17{fill:#BDD9D1;}
	.st18{fill:#86D1CD;}
	.st19{fill:#EE9849;}
	.st20{fill:#E58638;}
	.st21{fill:#A9453D;}
	.st22{fill:#ED975D;}
	.st23{fill:#E7F1FD;}
	.st24{fill:#1E3D70;}
	.st25{fill:#DC9B3D;}
	.st26{fill:#599DAD;}
	.st27{fill:#5AA9AD;}
	.st28{fill:#4A75CB;}
	.st29{fill:#2B478B;}
	.st30{fill:#F9DDBF;}
	.st31{fill:#EAC8A9;}
	.st32{fill:#FCECDB;}
	.st33{fill:#FCEBD9;}
</style>
<g>
	<path class="st0" d="M324.6,1684.7c0,0-285.8-306.8-48.3-638.9c210.7-294.7,456.3-274.5,636.4-154.9c76.8,50.9,298,6.3,486.3-293.6
		c256.8-408.9,1147.1-160.9,984.8,468.2c-78.6,304.4,239.1,315.6,77.2,619.9L324.6,1684.7z"/>
	<g>
		<g>
			<path class="st1" d="M1318.7,963.2c0-0.6,3.2-67.3-29-82.6l2.3-2.2c14.8,5.2,31.1,21.1,37.6,43.6c4.9,16.7,1.1,20.4,1.2,21
				L1318.7,963.2z"/>
		</g>
		<g>
			<g>
				<path class="st2" d="M1154.5,309.3c0,49.2,17.4,94.5,46.5,129.8c25.2,30.5,39,68.7,39,108.2v57c0,36.2,29.6,65.8,65.8,65.8
					h105.4c36.2,0,65.8-29.6,65.8-65.8v-57.1c0-39.6,14.1-77.7,39.3-108.4c29.1-35.6,46.6-81.1,46.3-130.7
					c-0.7-112.6-91.6-202.9-204.2-202.9c-12.5,0-24.8,1.1-36.7,3.3c-2.6,0.5-5.3,1-7.8,1.6C1222.8,130.3,1154.5,211.7,1154.5,309.3z
					"/>
				<path class="st2" d="M1154.5,309.3c0,49.2,17.4,94.5,46.5,129.8c25.2,30.5,39,68.7,39,108.2v57c0,36.2,29.6,65.8,65.8,65.8h16.2
					c36.2,0,65.8-29.6,65.8-65.8v-57.1c0-39.6,14.1-77.7,39.3-108.4c29.1-35.6,46.6-81.1,46.3-130.7c-0.6-97.2-68.5-177.9-159.5-198
					C1222.8,130.3,1154.5,211.7,1154.5,309.3z"/>
				<path class="st3" d="M1313.4,489.1c3.4,3.6,12.3,9.4,16,12c8.3,5.6,23.9,9.1,27.1,49c-0.2,35.5,0.1,124.8,0.1,125.8h4
					c0-0.9-0.2-86.4-0.1-123.4h0.1c0-0.1,0-0.9-0.1-2.5c0-4,0-7.3,0.1-9.6c0.3-23,25.5-38.9,25.7-39l0,0
					c16.5-10.1,34.7-29.3,34.7-53.5c0-34.4-28-62.4-62.4-62.4s-62.4,28-62.4,62.4C1296.1,464,1302.4,477.5,1313.4,489.1z
					 M1316.1,488.2c-10.3-10.9-15.9-25.2-15.9-40.2c0-32.3,26.2-56.1,58.5-56.1s58.5,23.9,58.5,56.1c0,23-15.9,42.7-31.8,52.1
					c-2.3,1.3-7.9,4.7-13.7,10.2c-7.4,7-12.2,14.7-14.1,22.6c-3.4-11.7-8.5-24-25.8-33C1325.4,496.6,1318.6,490.9,1316.1,488.2z"/>
				<path class="st4" d="M1411.1,670l-0.2,1.8l-2.9,22.2l-0.8,5.8v0.1l-0.8,5.8l-2.9,22.2l-0.8,5.8v0.1l-0.8,5.9l-0.5,3.2
					c-1.5,11.2-14.3,19.9-29.7,19.9h-34.7c-3.7,0-7.2-0.5-10.5-1.4l0,0c-2.9-0.8-5.7-2-8.1-3.4l-0.2-0.1c-2-1.1-3.8-2.5-5.3-4
					c-3.1-3-5.2-6.8-5.8-10.8l-1.2-8.6l-0.8-5.4l0,0v-0.1l0,0l-0.8-5.3l-2.9-20.6l-0.8-5.4v-0.1l-0.8-5.4l-3.2-22.3h114.1V670z"/>
				<g>
					<path class="st5" d="M1397.3,670h-0.3h-19.3c-31.6,9.1-63,18.2-77.5,22.3l0.8,5.4v0.1l0.8,5.4c11.8-3.3,40.1-11.3,109.1-31.4
						l0.2-1.8L1397.3,670L1397.3,670z"/>
					<path class="st5" d="M1305.3,729L1305.3,729L1305.3,729L1305.3,729l0.8,5.5c13.6-3.9,41.7-11.9,100.2-28.9l0.8-5.8v-0.1
						l0.8-5.8c-37,10.7-81.7,23.7-103.3,29.8L1305.3,729z"/>
					<path class="st5" d="M1318.5,758l0.2,0.1c2.5,1.4,5.2,2.5,8.1,3.4l0,0c16-4.6,39.9-11.5,75.3-21.7l0.8-5.9v-0.1l0.8-5.8
						c-31.6,9.1-67.9,19.6-90.3,26C1314.7,755.4,1316.5,756.8,1318.5,758z"/>
				</g>
			</g>
			<path class="st1" d="M1234.5,831.1c0,0-3.7,34.3,14.3,48.9c18,14.6,50.8,4,50.8,4s3.7-34.3-14.3-48.9
				C1267.3,820.4,1234.5,831.1,1234.5,831.1z"/>
			<g>
				<path class="st1" d="M1313.3,1088.3c-0.6-3.4-12.3-82,17.5-169.5c28.6-84.1,12.7-155.4,12.6-156.2h21c0.6,3,2,73.1-20.4,169
					c-20.2,86.3,17.4,156.6,9.4,156.6H1313.3z"/>
			</g>
			<g>
				<path class="st1" d="M1357.4,856.4c0.1-0.5,10.2-58,37.2-64.6l0,0c-12.1,1.6-27.4,10.2-35.9,26.3c-6.4,12-4.1,15.4-4.2,15.8
					L1357.4,856.4z"/>
			</g>
		</g>
	</g>
	<g>
		<path class="st6" d="M834.9,1323.7H531.5c-4.1,0-7.5-3.4-7.5-7.5v-24.8c0-4.1,3.4-7.5,7.5-7.5h303.5c4.1,0,7.5,3.4,7.5,7.5v24.8
			C842.4,1320.3,839,1323.7,834.9,1323.7z"/>
		<g>
			<g>
				<g>
					<path class="st7" d="M601.2,1323.7l-3.8,23.3l-54.8,336.6c-0.2,1.1-1.4,2.1-2.8,2.1c-2.8,0-5-2-4.7-4.2l43.4-344.7l1.6-13
						L601.2,1323.7L601.2,1323.7z"/>
				</g>
				<path class="st8" d="M601.2,1323.7l-3.8,23.3c-2.6-9.2-18.9-10.2-18.9-10.2l1.6-13L601.2,1323.7L601.2,1323.7z"/>
			</g>
			<g>
				<g>
					<path class="st7" d="M826.6,1685.7c-1.5,0-2.7-0.8-2.8-2.1L769,1347l-2.4-14.5l-1.4-8.8h21l1.6,13l1.3,10.2l42.2,334.5
						C831.6,1683.7,829.5,1685.7,826.6,1685.7z"/>
				</g>
				<path class="st8" d="M789.2,1346.9c-5.4-11.1-22.5-14.5-22.5-14.5l0,0l-1.4-8.8h21l1.6,13L789.2,1346.9z"/>
			</g>
		</g>
	</g>
	<g>
		<path class="st1" d="M735.4,502.1c-0.1-1.9-1.5-22.5-33-23.6c0,0,15.5,1.9,18.1,8.7c0,0-10.6-8.4-19.1-5.7
			c-8.6,2.7-13.6,17.7-13.7,22.6c-0.1,4.9,4.7,20.8,10.2,22.2c2.1,0.5,4.4,0.4,6.6,0c-1.4,2.3-2.8,4.7-4.2,7.5
			c-12.5,25.7,0.4,50.9,11,48.1c6.8-1.8,8.8,9.8,8.8,9.8l66.1-53.6C786.2,538.2,761.9,488,735.4,502.1z"/>
		<path class="st9" d="M897.7,797c0,0,13.1-2.5,16.1,0c3,2.5,17.2,17,14.1,21.7c-3,4.7-17.6-4-20.7-4.7c-3-0.8-11.5-4.1-11.5-4.1
			L897.7,797z"/>
		<path class="st10" d="M758.4,1260.3l-14.1,5.2c0,0-61-84.6-68.6-159.1c-1.3-13.3-0.8-26.2,2-38.1c0,0-0.6-3.4-1.6-9.4
			c-0.5-2.8-1-6.2-1.8-10.1c-2-11.4-4.7-26.9-7.8-44.6c-7.2-40.7-16.5-92.8-23.7-131.2l3.8-1.2l40.9-13.2l8.5-26.9l30.5-8
			c0,0,6.8,13.3,12.9,76.3c1.1,8.3,2.2,17.4,2.9,27.3c2.4,30.2,2.5,67.5-2.9,110.2c-1.4,10.9-3.2,22.3-5.4,33.9
			c-1.6,8.5-1.9,20.1-1.1,33.4C736,1165.8,758.4,1260.3,758.4,1260.3z"/>
		<path class="st10" d="M742.4,927.3L676.2,1059c-0.5-2.8-1-6.2-1.8-10.1c-2-11.4-4.7-26.9-7.8-44.6c-7.2-40.7-16.5-92.8-23.7-131.2
			l3.8-1.2l40.9-13.2l8.5-26.9l30.5-8c0,0,6.8,13.3,12.9,76.3C740.6,908.4,741.7,917.5,742.4,927.3z"/>
		<path class="st10" d="M713.3,840.8l-1.5-13.1c-25.7,6.8-94.3-19-94.3-19s-24.9,21.9-21.6,74.3c1.6,25.6,4.5,134.3,7.5,166.5
			c1.1,11.7,2.1,20,2.5,23.3l0,0c0.1,1-0.2,2-0.8,2.8c-4.4,7.6-8.2,15.6-11.2,23.6c-29.9,79.6,4.6,177.6,4.6,177.6l9-3.6
			c0,0,19.6-109,35.6-157.2c2.7-8.2,5.3-14.6,7.6-18.4c6.9-11.2,13.4-29.4,19.1-51.2c11-41.1,19.9-94.5,25.8-135.8
			C696.4,910.5,713.3,840.8,713.3,840.8z"/>
		<path class="st9" d="M897.7,797l-1.9,12.8c0,0-0.8,0-2.4-0.1c-4.7-0.3-16-0.9-29-2.4c-19.3-1.9-42.3-5.3-51.5-10.9
			c-14-8.5-36.8-34.5-51.7-60.6c-0.5-0.7-0.8-1.3-1-1.9c-7.7-13.9-13.2-27.5-13.6-38.5c-0.3-6.7,0.5-12.4,1.8-17.4
			c1.8-6.6,4.8-11.8,7.8-15.7c0.5-0.7,0.8-1.3,1.5-1.8c5.1-6,10.1-8.6,10.1-8.6c2.5-1,5.3,0.2,8.2,3.3v0.1c2.4,2.5,4.9,6.1,7.4,10.8
			c0.1,0.1,0.2,0.2,0.2,0.3c0.6,0.9,1,2,1.7,3.2c0.2,0.2,0.3,0.6,0.5,0.8c1.1,2.5,2.4,5,3.5,7.6c13.1,28.5,27,71.7,38.6,84.5
			c5,5.6,27.8,16.4,46,24.4C887,792.8,897.7,797,897.7,797z"/>
		<path class="st9" d="M762.3,681.3c-8,3.8-17.8,6.3-29.6,6.9c-44.1,2.5-54.2-36.3-56-62c6.3-2.3,12-2.1,15.2-1.9
			c3.1,0.2,6.4,0.5,9.1,0.8c5.4-2.8,15.1-16.5,20.7-39.4l1.9,0.8l31.9,15c0,0-3.4,10.4-5.8,20.3c-2,7.7-3.4,15.3-2.2,17.4
			c2.5,1,4.1,1.7,4.1,1.7l0,0C751.8,641.7,758.6,659.3,762.3,681.3z"/>
		<path class="st11" d="M755.4,601.5c0,0-3.4,10.4-5.8,20.3c-18.6-5.2-24.2-24.8-25.9-35.3L755.4,601.5z"/>
		<path class="st9" d="M759.4,612.6c0,0-44.5-10.3-37.7-38c6.9-27.6,5.8-47.6,34.4-42.2c28.8,5.4,31.6,17.4,31.6,27.2
			C787.7,569.3,771.2,614.5,759.4,612.6z"/>
		<path class="st1" d="M790.2,543.8c-4.8-10-10.5-9.5-14-7.7c-20.9-19.3-41.5-3.6-41.5-3.6c-7.9,19-25,26.9-25,26.9s6.9,7,26.7,6.9
			c6-0.1,12.2-2.8,17.7-6.7c-10.7,10.8-23.2,17.4-23.2,17.4c24.8-4.7,41.5-33.5,43.2-36.6c2.1,3.1,6.1,9.7,6.5,15.3
			c0.5,7.5-2.2,22.4,2.2,22.9C782.8,578.6,797.4,558.8,790.2,543.8z"/>
		<path class="st6" d="M789.4,678c-1.6-4.8-12.4-23.6-12.4-23.6l0,0c0,0-6.8-6.2-25.7-13.7l0,0c0.3,1.1,8.3,30.2,5.4,36.4
			c-3,6.3-59.4-14.1-62.5-18.8c-2.5-3.8-2.5-23.5-2.5-31.2c0-1.9,0-3.1,0-3.1s-21-2.8-32.9,2c0,0,4.7,10.2,6.4,21.4
			c0.2,1,0.3,2.2,0.4,3.2c0.2,2.3,0.3,4.5,0.2,6.7c-0.2,2.9-1.7,5.5-4.1,8c-2.2,2.4-5.1,4.6-8.5,7.1c-2.2,1.6-4.5,3.2-7,5.1l0,0
			c-0.2,13.2,0.8,34.9-1.7,58c-0.7,5.8-2.5,11.5-5.7,16.5c-1.2,2-2.6,3.9-4.1,5.7c-12.4,14-34.5,41.8-29.6,59.1
			c0.4,16.3,138.1,37.8,135.1,19.9c0,0,20.7-99.8,31.9-123.8c0.4-0.8,0.8-1.7,1.1-2.6c3.6-9.5,3-19.2,1.8-28
			C781.5,677.7,789.4,678,789.4,678z"/>
		<path class="st12" d="M703.3,803.2c-27.2-0.3-50.2-28.5-64.2-51c3.1-5,5-10.6,5.7-16.5c2.5-23.1,1.5-44.9,1.7-58l0,0
			c2.5-1.8,4.8-3.5,7-5.1c3.4-2.5,6.3-4.7,8.5-7.1C684.1,703.2,740.2,803.6,703.3,803.2z"/>
		<path class="st9" d="M806,818l-3.7,13.6c0,0-4.7-0.8-12.2-2.3c-2.3-0.5-3.5-0.8-3.5-0.8c-5.9-1.1-13.1-2.7-20.8-4.4h-0.1
			c-13.3-3.2-28.2-7-40.7-11.3c-8.9-3.1-16.5-6.4-21.7-9.7c-0.6-0.3-0.9-0.7-1.5-1c-12.4-9.1-27.3-35.6-38.7-64.1
			c-1.6-4-3.1-7.8-4.5-11.7c-5.3-14.2-9.5-28.3-12.2-40.4c-1.6-7.3-2.6-13.9-2.8-19.2c-0.1-1.9-0.2-3.7-0.1-5.4
			c0.2-30.8,15.6-35.1,15.6-35.1c0.3-0.1,0.7-0.2,1-0.3c2.6-0.5,5.4,1.4,8.3,4.9c3.6,4.3,7.5,11.5,11.4,20.1
			c6,13.7,12.4,31.5,18.4,49.1c3.3,9.7,6.5,19.3,9.7,28.3c1.8,5.4,3.6,10.6,5.3,15.2c3.3,9,6.3,16.1,9,20.7c1.7,3,6.6,7.2,13.1,11.8
			c11.2,8.2,27.7,18.1,42.1,26.1c5.9,3.4,11.6,6.5,16.2,9.1C801,815.3,806,818,806,818z"/>
		<path class="st6" d="M679.6,650.9c-20.5-5.7-36.2,10.4-36.2,10.4c0.3-30.7,15.6-35,15.6-35C665.2,623.7,672.3,634.4,679.6,650.9z"
			/>
		<path class="st13" d="M650.4,1283.9h-70.7c0,0-1.7-10.8,2-19c3.6-7.8,9.1-11.4,7.7-20.9c4.5,4.6,11.8,9.8,22.1,8.4
			c1.2,2.1,8.1,12.9,12.3,15.9C628.4,1271.8,649,1270.5,650.4,1283.9z"/>
		<path class="st13" d="M802.3,1283.9h-70.7c0,0-2.6-11.3,2-19c4.1-6.8,2.5-10.7-0.5-16.3c3.2,1.3,7.4,2.5,11.9,2.3
			c3.5-0.2,7.3-1.8,10.6-3.7c3,3.5,16.1,18.3,20.2,21.2C780.3,1271.8,800.9,1270.5,802.3,1283.9z"/>
		<path class="st14" d="M828,923.6l9.8,4.1l47,19.2c18.6,7.6,40.1-1.3,47.7-20l4.6-11.2c3-2,6-4.1,9.1-6.3
			c51.3-36.9,106.7-1,106.7-1c0.6-1.4,0.8-2.7,0.8-3.9c-0.1-3.5-2.3-5.8-2.3-5.8c-34.5-24-83.7-26.9-105.4-26.9
			c-6.9,0-10.9,0.3-10.9,0.3l-1.3-0.6c8.8-29.7-2-59.9-25.8-69.7c-5.1-2.1-10.5-3.1-15.8-3.1c-10.2,0-20.5,3.4-29.6,9.7
			c-8.7,5.9-16.4,14.5-22,25c-5.5-1.5-11.3,1.3-13.5,6.6l-16.8,41C803.4,897.6,811.5,916.8,828,923.6z M896.1,835.5l-2.6-1.1
			c-1.1-0.5-2.4-0.7-3.6-0.7c-3.8,0-7.3,2.2-8.8,5.8l-19.1-7.8c-5.2-2.2-11.1,0-13.9,4.7l-2.8-1.1c5.7-10.4,13.4-18.6,22.2-24
			c9.2-5.8,19.4-8.4,29.2-7.1c3.1,0.4,6.2,1.2,9.2,2.5c21.3,8.8,30.8,36,23.1,63l-2.1-0.8c1.3-5.3-1.4-10.9-6.6-13.1l-19.1-7.8
			C903.2,843,900.9,837.5,896.1,835.5z"/>
		<path class="st15" d="M937.1,915.6c3-2,6-4.1,9.1-6.3c51.3-36.9,106.7-1,106.7-1c0.6-1.4,0.8-2.7,0.8-3.9
			c-7.7-5.1-36.9-22.1-72.9-16.3C938.5,895,930.9,900.8,937.1,915.6z"/>
		<path class="st15" d="M828,923.6l9.8,4.1c-14.7-8,3.5-41.9,14.1-64.2c10.7-22.4,26.7-12.2,26.7-12.2c3.7-7.5,11.6-7.1,11.6-7.1
			c0.4-7.2,5.9-8.7,5.9-8.7l-2.6-1.1c-1.1-0.5-2.4-0.7-3.6-0.7c-3.8,0-7.3,2.2-8.8,5.8l-19.1-7.8c-5.2-2.2-11.1,0-13.9,4.7l-2.8-1.1
			c5.7-10.4,13.4-18.6,22.2-24c9.2-5.8,19.4-8.4,29.2-7.1c-1.5-1.2-3.2-3-4.7-5.4c-10.2,0-20.5,3.4-29.6,9.7
			c-8.7,5.9-16.4,14.5-22,25c-5.5-1.5-11.3,1.3-13.5,6.6l-16.8,41C803.4,897.6,811.5,916.8,828,923.6z"/>
		<path class="st9" d="M850,831.2c-6.8,2.8-16.4,12.8-31.7,6.8c-10.9-4.2-22.5-7.3-28.2-8.6c-2.3-0.5-3.5-0.8-3.5-0.8l6-17.6
			c0,0,0.2,0.1,0.8,0.2c4,0.8,24,5.1,33.3,3c10.6-2.5,28.2,10.2,28.2,10.2S856.8,828.4,850,831.2z"/>
		<path class="st4" d="M1042,937.9c0-6.4,11.6-26.1,11.6-26.1s11.6,19.7,11.6,26.1s-5.2,11.6-11.6,11.6S1042,944.3,1042,937.9z"/>
	</g>
	<g>
		<path class="st1" d="M1249.3,703.7c0,0-29.1-41.1-62.1-53.2c0,0,12.4,96.5-5.8,97.6c-18.1,1.2-6-108.5-6-108.5
			s-86.2-47.8-121.2-46.5c0,0,49.5,96.4,31.7,93.1c-17.8-3.3-74-101.2-74-101.2s-89.9-22.2-107.7,30.8c-17.7,53,4.2,81.3,17.5,85.4
			c13.3,4.1,99.8,8.1,96.9,19.1c-2.9,11.1-62.3,25.7-94.2,13.6c0,0,30.7,90.7,78.1,89c47.4-1.7,63.7-30.1,93-30.6
			c29.3-0.6,50.2,8.6,35.1,15.6c-15.1,7-64.1-1.1-88.8,17.4c-24.7,18.7-44.5,29.9-1.3,41.4c43.2,11.5,108.5-1.5,139.5-22.2
			c0.1-0.1,25.4-2.1,45.3,114.9c7.6,45.1,1.8,111.9,1.8,111.9l16-2.5c8.9-131.1-38.4-240.1-38.4-240.1S1284.9,770,1249.3,703.7z"/>
		<g>
			<path class="st3" d="M1511.9,876.7c0,0-96.8-40.6-62.1-114.6c0,0,29.1-46.3,64.3-61.3c0,0-7.7,105.2,12,105.5
				c19.7,0.2,0.2-118,0.2-118s90.6-57,128.6-57.5c0,0-48,107.4-28.9,102.8c19.1-4.6,74.3-114,74.3-114s96.2-29.3,118.5,27.2
				c22.4,56.4,0.2,88.5-14,93.7c-14.1,5.3-107.7,14.6-103.8,26.5c3.8,11.9,69,24.1,103,9.2c0,0-28,100.2-79.5,101.1
				c-51.5,0.9-70.8-28.9-102.6-27.7c-31.8,1.1-53.8,12.3-37.2,19c16.7,6.7,69.4-5,97.3,13.8s50.1,29.8,3.9,44.8
				c-46.2,15.1-131.7,18.6-152.9-15.8S1511.9,876.7,1511.9,876.7z"/>
			<g>
				<path class="st16" d="M1775.9,670c0,0-245.4,111.3-264.1,206.8c0,0,5.8,41.1-14.2,91.3l2.1,18.2c0,0,19.7-64.9,33.3-75
					C1533,911.2,1466.9,837.6,1775.9,670z"/>
				<path class="st16" d="M1497.6,968c0,0-32.5,64.1-1.9,134.2l9.8-3.9c0,0-18.9-78.8-2.8-121.4C1518.7,934.3,1497.6,968,1497.6,968
					z"/>
			</g>
		</g>
		<g>
			<path class="st1" d="M1143,436.5c39.6,42.2,19,126,19,126s-84.9,15.4-124.6-26.8c-39.6-42.2-19-126-19-126
				S1103.4,394.3,1143,436.5z"/>
			<path class="st17" d="M1143,436.5c39.6,42.2,19,126,19,126l-143.5-152.8C1018.6,409.7,1103.4,394.3,1143,436.5z"/>
		</g>
		<g>
			<path class="st16" d="M1599.3,570.5c-20.7,24-67.4,17.5-67.4,17.5s-13.2-45.3,7.5-69.3c20.7-24,67.4-17.5,67.4-17.5
				S1620,546.4,1599.3,570.5z"/>
			<path class="st18" d="M1599.3,570.5c-20.7,24-67.4,17.5-67.4,17.5l74.9-86.8C1606.8,501.2,1620,546.4,1599.3,570.5z"/>
		</g>
		<g>
			<polygon class="st19" points="1723.3,978 1723.3,978.4 1714,1122.4 1679.2,1657.1 1028.5,1657.1 990.2,1129.7 979.6,984.3 
				979.1,978 			"/>
			<path class="st20" d="M1723.3,978.4l-9.3,144c-49-17.1-185.2-58.1-362.7-58.1c-224.2,0-361.1,65.4-361.1,65.4l-10.6-145.3
				L1723.3,978.4z"/>
			<polygon class="st19" points="1745.9,1054.1 955.6,1054.1 946.5,962.2 1756,962.2 			"/>
			<polygon class="st20" points="1689.2,1685.7 1014.5,1685.7 1006.8,1653.6 1697.8,1653.6 			"/>
		</g>
	</g>
	<g>
		<path class="st9" d="M1357.8,1673.3v-5.6c0,0-25.6-28.4-33.4-42.8l-21.6-39.9l-28.3,7l35.8,50.8L1357.8,1673.3z"/>
		<path class="st21" d="M1200.1,941.8c4.9-20.3-2.3-29.8-8.7-34.8c-3-7.5-6.6-12.8-10.1-14.9c-6.5-3.7-14.3-4.1-19.8-3.8
			c1.4-1.4,4.1-2,4.1-2c-3.4-0.5-10.9,2.8-10.9,2.8c-47.2-18.2-54.5,51.2-53.6,67.3c0.9,16.1,0.8,35.1-23.7,47.8
			c-46.8,24.2,15.6,115.6,15.6,115.6c-1.2-13,58.9-81.8,90.3-102.4c7.6-11.2,10.4-31.1,10.6-32.6c-1.3,15.7-4.1,24.6-6.4,29.5
			C1201.7,1001.2,1203.9,969.6,1200.1,941.8z"/>
		<path class="st9" d="M1181.4,1018.5c0.2,0.1-15.2,8-26.7,4.9c-10.8-2.9-17.9-17-17.7-17c4.6-0.9,5.9-7.2,5.8-34.3l2.1,0.4
			l34.9,6.9c0,0-0.8,10.9-0.8,21.3C1179,1009.4,1179.4,1017.6,1181.4,1018.5z"/>
		<path class="st22" d="M1179.7,979.4c0,0-0.8,10.9-0.8,21.3c-19.5-0.6-29.8-18.3-34-28.2L1179.7,979.4z"/>
		<path class="st10" d="M1318.6,1611.1l-18.5,0.6l-20,0.6c0,0-46.2-51.4-72.1-133.8c-0.6-1.9-1.2-3.9-1.9-5.8
			c-14.1-41.3-43.6-93.3-59-140.2c-2.5-7.5-4.7-14.5-6.7-21.2c-0.7-2.2-1.2-4.2-1.9-6.3c-11.4-39.7-14.7-65.7-17.7-93.6l111.8,0.8
			C1232.7,1212.2,1250.7,1402.2,1318.6,1611.1z"/>
		<path class="st23" d="M1217.1,1147.9c-0.3,53.2,7.8,76.1,7.8,76.1s-47.9,24.3-104.8,6.4c-0.7-0.2-47.2-10.8-47.2-10.8
			c0.9-2.2,9.4-38,10.4-40c12-25.8,21.1-37.2,22.5-45.1c2.6-14.8,2.7-30.2,1.4-44.6c-3.5-38.3-13.8-70.1-13.8-70.1
			c15.5-3.5,30-9.7,46.2-15.7c3.7,4.6,15.1,9.4,24.9,9.2c11.3-0.3,15-5.1,14.4-10.4c12.1,6.7,21.7,13.1,21.7,13.1
			c10.3,17.8,31.1,35.2,32.6,62.5C1233.7,1085.3,1217.1,1146.4,1217.1,1147.9z"/>
		<path class="st9" d="M1186.3,989.2c0,0-46.1,0.8-46.2-28c0-28.8-6-48,23.5-49.7c29.4-1.7,35.2,9.2,37.5,18.9
			C1203.4,940,1198.3,988.3,1186.3,989.2z"/>
		<path class="st21" d="M1184.5,910.8c0,0-12.6,33.8-32.1,38.7c-19.4,5-27.8-0.2-27.8-0.2s14.9-11.8,17.9-32.4
			C1142.7,916.9,1175,894.7,1184.5,910.8z"/>
		<path class="st21" d="M1181.4,913.5c0,0,9.4,7.5,11.7,14.8c2.3,7.4,3.3,22.4,7.7,21.9c0,0,9.5-22.9-1.1-35.9
			C1188.4,900.7,1181.4,913.5,1181.4,913.5z"/>
		<path class="st9" d="M1151.7,1666.4c-1.6-8.7-4.5-23.6-4.5-23.6l0.7-53h-32.2l12.1,50.7c0.3,2.4,0.9,11.5-2.5,21.2
			c0,0-3.1,14.1,10.8,14.3S1153.3,1675,1151.7,1666.4z"/>
		<path class="st24" d="M1125.2,1661.7c0,0-2.6,16.9-1,24c0,0,4.1,0.3,14.1,0.3c9.5,0,14.6-0.3,14.6-0.3s0.3-18.1-2.3-24.2
			C1150.8,1661.3,1141,1676.1,1125.2,1661.7z"/>
		<polygon class="st9" points="1258.9,1184.9 1280.6,1251.3 1268.3,1256.3 1232.3,1197.6 		"/>
		<path class="st24" d="M1374.3,1685.7c0,0-27.8,0.6-32.5,0c-4.7-0.5-8.4-9.1-13.5-19.2c-2.1-4.1-6.8-6.5-11.6-7.7l0.2,27h-7.1
			l-7.3-28.5c-4.5-8.3-1.1-15.8,2.1-22.4c3.7,0,14.4,2.5,33.3,23.8c6.2,7,13.1,9.5,19.9,9.2c0.1,0.1,0.2,0.1,0.3,0.2
			C1373.8,1675,1374.3,1685.7,1374.3,1685.7z"/>
		<path class="st10" d="M1264.3,1191.3c0,0-3.4-8.7-7.8-19.6c-4.5-10.9-15.7-117.6-23.2-133.4c-7.5-15.9-33.1-26.1-33.1-26.1
			l-21.2-9.1c0,0,26.7,65.9,27.4,79.3c0.8,13.4,3.1,218.2,3.1,218.2s-1.6,9.4,16.5,5.5c18-4,22.7-7.8,22.7-7.8s-6.6-48-10.5-95.2
			C1251.3,1202.3,1264.3,1191.3,1264.3,1191.3z"/>
		<path class="st10" d="M1300.2,1611.6l-20,0.6c0,0-46.2-51.4-72.1-133.8c-0.6-1.9-1.2-3.9-1.9-5.8c-14.1-41.3-43.6-93.3-59-140.2
			c-2.5-7.5-4.7-14.5-6.7-21.2c-0.7-2.2-1.2-4.2-1.9-6.3l16.5-12.5c0,0,49.4,80.1,64.8,155.4
			C1233.2,1513.3,1286.4,1592,1300.2,1611.6z"/>
		<path class="st10" d="M1156.8,1454.8c0.3,36.7-1.6,120.9-6.3,155.8h-17.7c-9.8,0-14.7-0.1-14.7-0.1
			c-12-60.6-20.5-110.8-26.7-154.1c-5.1-35.5-9.6-65.9-13.1-92.1c-3.5-26.3-5.9-48.4-6.8-67.1c-0.1-2.9-0.2-5.8-0.3-8.6
			c-0.1-2.8-0.1-5.5-0.1-8.1l96.7-9.4C1166.6,1335.3,1156.6,1433.5,1156.8,1454.8z"/>
		<path class="st10" d="M1132.8,1610.6c-9.8,0-14.7-0.1-14.7-0.1c-12-60.6-20.5-110.8-26.7-154.1c-5.1-35.5-9.6-65.9-13.1-92.1
			c-3.5-26.3-5.9-48.4-6.8-67.1l35.5,20.8c0,0-22.6,8-14,68.5C1101.5,1447,1120.7,1602,1132.8,1610.6z"/>
		<path class="st10" d="M1137.3,1296.6c0,0-6.8,24.6-30.4,21.5c-23.6-3.1-57.1-17.3-57.1-17.3s10.1-31.8,22.5-73.6
			c15.2-50.5,34-115.8,42.7-156.9c2.5-11.5,4.1-21.1,4.8-28l19.5-37.9c0,0,29.1,65.4,30.7,81.9
			C1171.8,1102.8,1137.3,1296.6,1137.3,1296.6z"/>
		<path class="st9" d="M1113.8,1083.7l25.7-79.4c-0.1,0-32.5,9.7-48.9,17.9c0,0-10.2,13.2-16.5,43.6c0,0-6.7,73,8.2,99.7
			c0,0,47.2,9.4,122.5-16.5v-17.3c0,0-82.4,4.3-99.3,6.3L1113.8,1083.7z"/>
		<path class="st10" d="M1136.3,1120.8c-1,26.7-7.4,78.6-63.4,106.3c-0.2,0.1-0.3,0.2-0.5,0.2c15.2-50.5,34-115.8,42.7-156.9
			C1125.5,1085.6,1136.8,1106.1,1136.3,1120.8z"/>
		<path class="st10" d="M1139.6,1004.3c0,0-47.8,3.4-59.3,29c-11.5,25.7-15.2,111-0.6,136.1c0,0,20.2,5.8,55.8-0.9
			c0.5-0.1,0.8-0.2,1.3-0.3c0,0,11.4-27.9,1.1-33.4c0,0-30.1,1.6-27-8.4C1114.3,1116.5,1139.6,1004.3,1139.6,1004.3z"/>
		<g>
			<path class="st21" d="M1259.4,1142.4l-1.4,4.5l-78.5-24.4c0,0-1-1.2-0.6-2.7c0.6-1.8,2-1.8,2-1.8L1259.4,1142.4z"/>
			<polygon class="st21" points="1265.2,1146.7 1259.4,1142.4 1258,1146.9 			"/>
		</g>
		<path class="st9" d="M1277.6,1249.5c0,0,19.9,11,22.5,19.3c2.6,8.4,0.8,25.9-2.4,25.7c-3.2-0.3-7.8-18.9-10.5-20.2
			c-2.6-1.3-6.3-5.3-6.3-2.4s2.6,8.1,1.3,8.9s-5.5-7.4-8.4-8.9c-2.9-1.6-4.1-14.5-6.9-18C1264.2,1250.5,1277.6,1249.5,1277.6,1249.5
			z"/>
		<path class="st9" d="M1204.8,1131.7c0,0,17.8-10.9,25.3-9.2c7.5,1.7,26.5,15.5,17.4,18.5c-9.1,3-16.6-0.2-20.1,2
			c-3.5,2.2-6.1,6.1-22.5,6C1188.4,1148.9,1204.8,1131.7,1204.8,1131.7z"/>
	</g>
	<g>
		<path class="st22" d="M1976.7,1179.4c0,0-22.6,12.9-29,12.9c-6.4,0-31.3-4.8-38.2-1.2c-7,3.6-19.5,17.8-21.9,22.4
			c-4.2,8.4,17.1,4.7,27.2-2.5c1.5-1,3.3-1.4,5-1c5.2,1.1,16,3.1,21.3,1.1c7.1-2.6,44.1-5.5,44.1-5.5L1976.7,1179.4z"/>
		<path class="st25" d="M2149.3,1003.8c0,0-23.5,167-62.4,182c-19.2,7.4-104.1,24.1-129.2,25.8c0,0-6.1-5-4.6-25.3
			c0,0,88.9-32.6,101.6-50.4c18.8-26.4-11.7-108,11.9-132.8C2090.1,978.4,2129.8,967.7,2149.3,1003.8z"/>
		<path class="st26" d="M2141.4,1355.8c-6.9,11.6-14.8,22.5-22.9,32.8c-25.3,31.9-52.7,58.2-57.5,83.1c-0.9,5-2.5,10.3-4.4,15.9
			c-2,5.7-4.4,11.7-7.4,17.8c-10.8,23.3-26.8,49.4-42.7,73.1c-27.6,41-53.7,75.3-53.7,75.3l-47.7-2.1c1.9-4.8,22.7-61.4,50.5-130.6
			c11.3-28.1,23.3-58,34.9-86.8c1.5-3.9,3.1-7.6,4.6-11.5c3.6-8.8,7.1-17.5,10.5-25.9c26.1-65,47-116.7,47-116.7
			s104.5-39.6,115.3-14C2176.7,1287.5,2169.4,1308.3,2141.4,1355.8z"/>
		<path class="st10" d="M1951.2,1645.1c0,0-2.5,39.4-10.1,40c-1,0.1-38.7,0.1-38.7,0.1l-48-0.3c0,0,0.3-11.6,14.3-14.1
			c14.1-2.5,37.5-12.4,46-30.8C1923.7,1620.5,1951.2,1645.1,1951.2,1645.1z"/>
		<path class="st10" d="M2003.2,1536.5c0,0,33.2,21.3,30,28.3c-0.5,0.9-18.8,33.8-18.8,33.8l-23.7,41.8c0,0-10-5.9-5.3-19.3
			c4.7-13.4,7.5-38.8-4.5-55.3C1968.3,1548.4,2003.2,1536.5,2003.2,1536.5z"/>
		<path class="st1" d="M1978.2,1575.9c0,0,28.1,2.7,36.3-31.6c0,0-30.2-108.4-48.8-131.3c-0.8-1-0.7-2.2,0.5-3.5
			c14-15.7,169.5-47.9,189.8-79.5c7-10.9,10.9-21.2,13.1-30.3c4.6-19.3,0.9-32.6,0.9-32.6l-155.3-4.5c0,0-128.9,80.6-143.9,135.4
			C1862,1430.8,1978.2,1575.9,1978.2,1575.9z"/>
		<path class="st27" d="M1966.2,1409.5c14-15.7,169.5-47.9,189.8-79.5c7-10.9,10.9-21.2,13.1-30.3v-19.6l-66-10.4
			c0,0-18.8,57.6-74.1,79.2C1977.1,1369.2,1967.3,1405.1,1966.2,1409.5z"/>
		<path class="st9" d="M2057.3,993.4c31.4,8.1,83.5-21,83.5-21s-20.2-13.6-27.7-43.5c-0.4-1.5-0.8-3-1-4.6c-3.3-0.7-9.5-2-16.1-3.4
			l-24,21.5c0,0,0.6,9,3.6,24.2c0.5,2.6,1.1,5.6,1.8,8.6C2064.5,983.2,2057.3,993.4,2057.3,993.4z"/>
		<path class="st2" d="M2174.2,1123.6c-4.5,60.5,1.4,152.6-3.7,168.5c-4.4,13.8-54.6,5.6-74.7,0.9c-7.5-1.7-16.4-4.1-25.7-7
			c-25.8-8-54-19.4-57.2-27.9c-0.1-0.4-0.2-0.7-0.3-0.9c-0.3-1.2-0.2-2.4,0.1-3.6c1-4.3,4.9-9.1,5.4-19.7c0.5-12,0.5-26,0.8-41.2
			c0-1.7,0-3.6,0.2-5.3v-0.7c0-0.3,0-0.7,0-0.9c0.5-16.9,1.3-34.7,2.4-52.3c0.7-11,1.4-22.1,2.3-32.5c2.3-27.2,5.3-51.2,9.3-66.5
			c6.6-24.8,21.1-41,34.3-52.9l9.5-8.2c10.7,2.4,23.3,0.8,34.6-4.6c12.4-5.8,16.6-10.1,18.8-8.5
			C2159,982.2,2179.5,1049.6,2174.2,1123.6z"/>
		<path class="st25" d="M2070.2,1286.1c-25.8-8-54-19.4-57.2-27.9c-0.1-0.4-0.2-0.7-0.3-0.9c0-1.2,0-2.4,0.1-3.6
			c1-4.3,4.9-9.1,5.4-19.7c0.5-12,0.5-26,0.8-41.2c0-1.7,0-3.6,0.2-5.3v-0.7c0-0.3,0-0.7,0-0.9l104.6-133.3
			C2123.9,1052.5,2194.3,1199,2070.2,1286.1z"/>
		<path class="st22" d="M2072,942.3c0,0,0.6,9,3.6,24.2c23.5-7.5,34-28.8,37.6-37.7c-0.4-1.5-0.8-3-1-4.6c-3.3-0.7-9.5-2-16.1-3.4
			L2072,942.3z"/>
		<path class="st9" d="M2068.9,955.8c0,0,51.1-8.5,45.3-40.3c-5.8-31.8-3.1-54.2-36-50.1s-37,17.4-37.6,28.5
			C2039.9,905,2055.4,957.2,2068.9,955.8z"/>
		<path class="st28" d="M1993.2,1218.4l-127.6,2.7l-35.6-109.4c-0.4-1.2-1.7-1.9-3-1.5l0,0c-1.2,0.4-1.9,1.7-1.5,3l37,113.6
			c0.4,1.2,1.6,2.1,2.8,2.1l128-2.7L1993.2,1218.4z"/>
		<path class="st9" d="M1990.8,1232.3c0,0-41.9,11-57.5,9.9s-28.8-8.6-30.7-12.5c-2-4-6.1-10.8,4.5-9.5s25.3,3.6,25.7,1.5
			s-8.7-1.9-8.7-1.9s-2.7-4.1,0.8-4.1c3.5-0.2,13.7-2.9,17.4-1c3.8,1.9,7.3,8.9,10,8.6c2.7-0.3,35-14.5,35-14.5L1990.8,1232.3z"/>
		<path class="st2" d="M2138.9,1010.7c0,0-4.9,168.6-42,187.8c-18.3,9.4-100.8,35.5-125.5,39.9c0,0-6.7-4.2-7.5-24.6
			c0,0,84.8-42.2,95.3-61.3c15.7-28.3-23.5-106-2.8-133.3C2077.2,991.9,2115.5,977,2138.9,1010.7z"/>
		<path class="st29" d="M2113.2,928.9c0,0,0.6-10.8-6.1-17.2c0,0,2.4-10.9-2-12.7c-4.3-1.8-5.2,7.4-7.2,5.9s-10.8-8.3-14.6-18.4
			c-3.8-10.1-38.4,2.2-42.4,4c-4.1,1.8-17-4.8-19.5-10.3c0,0,7.2-5.8,10.5-10.1c3.2-4.3,25.9-33.5,57.6-25.2s36,23.4,34.2,36.4
			C2121.8,894.3,2126.1,924.5,2113.2,928.9z"/>
	</g>
	<g>
		<path class="st6" d="M2280.2,1407.2h-240.5c-4.8,0-8.8-4-8.8-8.8v-50c0-4.8,4-8.8,8.8-8.8h240.5c4.8,0,8.8,4,8.8,8.8v50
			C2289.1,1403.2,2285.1,1407.2,2280.2,1407.2z"/>
		<g>
			<g>
				<g>
					<path class="st7" d="M2079.1,1407.2l-3.8,17.8l-54.8,258.6c-0.2,0.9-1.4,1.6-2.8,1.6c-2.8,0-5-1.5-4.7-3.2l43.4-264.8l1.6-10
						L2079.1,1407.2L2079.1,1407.2z"/>
				</g>
				<path class="st8" d="M2079.1,1407.2l-3.8,17.8c-2.6-7.1-18.9-7.8-18.9-7.8l1.6-10H2079.1z"/>
			</g>
			<g>
				<g>
					<path class="st7" d="M2304.6,1685.2c-1.5,0-2.7-0.7-2.8-1.6L2247,1425l-2.4-11.1l-1.4-6.7h21l1.6,10l1.3,7.8l42.2,257
						C2309.6,1683.7,2307.5,1685.2,2304.6,1685.2z"/>
				</g>
				<path class="st8" d="M2267.2,1425c-5.4-8.5-22.5-11.1-22.5-11.1l0,0l-1.4-6.7h21l1.6,10L2267.2,1425z"/>
			</g>
		</g>
	</g>
	<g>
		<g>
			<g>
				<path class="st30" d="M1802.1,1685.1c-2.4,0.6-4.7-0.8-5.3-3.2l-52.3-210.9l-10.1-40.8l-19.9-80.2l-30.3-121.9l28.5-1.9
					l16.7,82.7l24,118.8l12.2,59.9l39.1,193.3C1805,1682.8,1803.9,1684.6,1802.1,1685.1z"/>
			</g>
		</g>
		<path class="st31" d="M1729.3,1308.9c-0.3,0.8-0.4,1.1-0.4,1.1s-14,20.3-14.5,40l-30.3-121.9l28.5-1.9L1729.3,1308.9z"/>
		<g>
			<g>
				<path class="st30" d="M1704.5,1228.1l-50.2,202.1l-10.1,40.8l-52.3,210.9c-0.6,2.4-2.9,3.8-5.3,3.2c-1.8-0.5-2.9-2.3-2.5-4.1
					l39.1-193.3l12.2-59.9l40.8-201.5L1704.5,1228.1z"/>
			</g>
			<path class="st31" d="M1654.3,1430.2l-10.1,40.8c-12,0.8-21.1,16.7-21.1,16.7l12.2-59.9l19-1.9
				C1654.2,1425.9,1654.3,1427.6,1654.3,1430.2z"/>
		</g>
		<g>
			<g>
				<path class="st30" d="M1536.7,1228.1l-50.2,202.1l-10.1,40.8l-52.3,210.9c-0.6,2.4-2.9,3.8-5.3,3.2c-1.8-0.5-2.9-2.3-2.5-4.1
					l39.1-193.3l12.2-59.9l40.8-201.5L1536.7,1228.1z"/>
			</g>
			<path class="st31" d="M1486.5,1430.2l-10.1,40.8c-12,0.8-21.1,16.7-21.1,16.7l12.2-59.9l19-1.9
				C1486.4,1425.9,1486.5,1427.6,1486.5,1430.2z"/>
		</g>
		<polygon class="st30" points="1664.8,1460.6 1423.3,1460.6 1508.9,1144.6 1744.4,1144.6 		"/>
		<polygon class="st32" points="1657.7,1460.6 1416.2,1460.6 1501.7,1144.6 1737.2,1144.6 		"/>
		<g>
			<path class="st33" d="M1662.6,1258.3c-5.5,17.8-16.8,34.1-31.1,46.9c-12.4,11-21.7,24.8-26.1,39.1l-6.3,20.6
				c-4,13.1-18,23.9-31.1,23.9h-38.1c-13.1,0-20.6-10.8-16.5-23.9l6.3-20.7c4.3-14.3,3.5-28.1-2.3-39.1c-6.6-12.8-7.9-29.3-2.3-47.2
				c12.7-40.7,55.5-73.4,96.3-73.4c4.5,0,8.9,0.4,12.9,1.2c0.9,0.2,1.8,0.4,2.6,0.6C1657.7,1193.6,1673.3,1223,1662.6,1258.3z"/>
			<path class="st2" d="M1642.1,1256.2c-5.5,17.8-16.8,34.1-31.1,46.9c-12.4,11-21.7,24.8-26.1,39.1l-6.3,20.6
				c-4,13.1-18,23.9-31.1,23.9h-5.8c-13.1,0-20.6-10.8-16.5-23.9l6.3-20.7c4.3-14.3,3.5-28.1-2.3-39.1c-6.6-12.8-7.9-29.3-2.3-47.2
				c10.9-35.2,44.4-64.3,79.5-71.6C1637.1,1191.5,1652.9,1221,1642.1,1256.2z"/>
			<path class="st19" d="M1596.1,1308.4c3.8-12.4-3.2-22.5-15.7-22.5s-25.7,10.1-29.5,22.5c-2.6,8.8,1.8,15.7,6.7,19.3l0,0
				c0.1,0.1,7.5,5.8,5,14.1c-0.3,0.8-0.6,2.1-1,3.5c-0.2,0.6-0.3,0.8-0.3,0.8l0,0c-4.1,13.4-13.6,44.2-13.7,44.6h1.4
				c0.1-0.4,10.1-32.6,14-45.5c5.6-14.4,11.6-15.7,15.2-17.7c1.7-0.9,5.6-3,7.2-4.3C1590.5,1319.1,1594.3,1314.2,1596.1,1308.4z
				 M1577.4,1327.2c-7.3,3.2-10.5,7.7-13,12c0.2-2.8-0.7-5.7-2.5-8.2c-1.5-2-3.1-3.2-3.8-3.7c-4.7-3.4-8.3-10.5-5.8-18.9
				c3.6-11.7,15.7-20.3,27.3-20.3s18.5,8.7,14.9,20.3c-1.7,5.5-5.3,10.6-10.2,14.5C1583.2,1323.9,1580.1,1326,1577.4,1327.2z"/>
			<path class="st4" d="M1567.8,1388.7l-0.3,0.7l-3.5,8l-0.9,2.1l0,0l-0.9,2.2l-3.5,8l-0.9,2.1l0,0l-0.9,2.2l-0.5,1.1
				c-1.8,4.1-7.4,7.2-12.9,7.2h-12.5c-1.3,0-2.5-0.2-3.6-0.5l0,0c-0.9-0.3-1.8-0.7-2.5-1.2h-0.1c-0.6-0.4-1-0.9-1.4-1.4
				c-0.8-1.1-1.1-2.5-0.8-3.9l0.5-3.1l0.3-2l0,0l0,0l0,0l0.3-1.9l1.2-7.5l0.3-2l0,0l0.3-1.9l1.3-8h41.3V1388.7z"/>
			<g>
				<path class="st5" d="M1562.8,1388.7L1562.8,1388.7h-7.1c-12.4,3.3-24.8,6.6-30.5,8l-0.3,1.9l0,0l-0.3,2
					c4.6-1.1,15.7-4.1,42.9-11.3l0.3-0.7L1562.8,1388.7L1562.8,1388.7z"/>
				<path class="st5" d="M1523.1,1410L1523.1,1410L1523.1,1410L1523.1,1410l-0.3,2c5.4-1.4,16.4-4.3,39.4-10.5l0.9-2.2l0,0l0.9-2.1
					c-14.5,3.9-32.2,8.6-40.6,10.8L1523.1,1410z"/>
				<path class="st5" d="M1524.6,1420.5L1524.6,1420.5c0.8,0.6,1.6,0.9,2.6,1.2l0,0c6.3-1.7,15.7-4.1,29.6-7.8l0.9-2.2l0,0l0.9-2.1
					c-12.4,3.3-26.7,7.1-35.6,9.4C1523.5,1419.6,1523.9,1420.1,1524.6,1420.5z"/>
			</g>
		</g>
		<g>
			<path class="st31" d="M1652.3,1410.1h-1.7c-0.3,0-0.5-0.2-0.5-0.5s0.2-0.5,0.5-0.5h1.7c0.3,0,0.5,0.2,0.5,0.5
				S1652.6,1410.1,1652.3,1410.1z M1645.8,1410.1h-4.8c-0.3,0-0.5-0.2-0.5-0.5s0.2-0.5,0.5-0.5h4.8c0.3,0,0.5,0.2,0.5,0.5
				S1646.1,1410.1,1645.8,1410.1z M1636.2,1410.1h-4.8c-0.3,0-0.5-0.2-0.5-0.5s0.2-0.5,0.5-0.5h4.8c0.3,0,0.5,0.2,0.5,0.5
				S1636.5,1410.1,1636.2,1410.1z M1626.6,1410.1h-4.8c-0.3,0-0.5-0.2-0.5-0.5s0.2-0.5,0.5-0.5h4.8c0.3,0,0.5,0.2,0.5,0.5
				S1626.7,1410.1,1626.6,1410.1z M1616.8,1410.1h-4.8c-0.3,0-0.5-0.2-0.5-0.5s0.2-0.5,0.5-0.5h4.8c0.3,0,0.5,0.2,0.5,0.5
				S1617.1,1410.1,1616.8,1410.1z M1607.2,1410.1h-4.8c-0.3,0-0.5-0.2-0.5-0.5s0.2-0.5,0.5-0.5h4.8c0.3,0,0.5,0.2,0.5,0.5
				S1607.5,1410.1,1607.2,1410.1z M1597.6,1410.1h-4.8c-0.3,0-0.5-0.2-0.5-0.5s0.2-0.5,0.5-0.5h4.8c0.3,0,0.5,0.2,0.5,0.5
				S1597.9,1410.1,1597.6,1410.1z M1588,1410.1h-4.8c-0.3,0-0.5-0.2-0.5-0.5s0.2-0.5,0.5-0.5h4.8c0.3,0,0.5,0.2,0.5,0.5
				S1588.3,1410.1,1588,1410.1z M1578.4,1410.1h-4.8c-0.3,0-0.5-0.2-0.5-0.5s0.2-0.5,0.5-0.5h4.8c0.3,0,0.5,0.2,0.5,0.5
				S1578.6,1410.1,1578.4,1410.1z"/>
		</g>
		<g>
			<path class="st31" d="M1638.7,1179.4c-0.1,0-0.3,0-0.4-0.1c-0.2-0.2-0.2-0.5,0-0.7l3.4-3.4c0.2-0.2,0.5-0.2,0.7,0
				c0.2,0.2,0.2,0.5,0,0.7l-3.4,3.4C1638.9,1179.4,1638.8,1179.4,1638.7,1179.4z M1645.5,1172.6c-0.1,0-0.3,0-0.4-0.1
				c-0.2-0.2-0.2-0.5,0-0.7l3.4-3.4c0.2-0.2,0.5-0.2,0.7,0c0.2,0.2,0.2,0.5,0,0.7l-3.4,3.4
				C1645.7,1172.5,1645.6,1172.6,1645.5,1172.6z M1652.3,1165.9c-0.1,0-0.3,0-0.4-0.1c-0.2-0.2-0.2-0.5,0-0.7l0.6-0.6
				c0.1-0.1,0.2-0.1,0.4-0.1h4.1c0.3,0,0.5,0.2,0.5,0.5s-0.2,0.5-0.5,0.5h-3.9l-0.4,0.4C1652.6,1165.8,1652.4,1165.9,1652.3,1165.9z
				 M1710.9,1165.3h-1c-0.3,0-0.5-0.2-0.5-0.5c0-0.3,0.2-0.5,0.5-0.5h1c0.3,0,0.5,0.2,0.5,0.5
				C1711.3,1165.1,1711.1,1165.3,1710.9,1165.3z M1705.1,1165.3h-4.8c-0.3,0-0.5-0.2-0.5-0.5c0-0.3,0.2-0.5,0.5-0.5h4.8
				c0.3,0,0.5,0.2,0.5,0.5C1705.6,1165.1,1705.3,1165.3,1705.1,1165.3z M1695.4,1165.3h-4.8c-0.3,0-0.5-0.2-0.5-0.5
				c0-0.3,0.2-0.5,0.5-0.5h4.8c0.3,0,0.5,0.2,0.5,0.5C1695.9,1165.1,1695.7,1165.3,1695.4,1165.3z M1685.8,1165.3h-4.8
				c-0.3,0-0.5-0.2-0.5-0.5c0-0.3,0.2-0.5,0.5-0.5h4.8c0.3,0,0.5,0.2,0.5,0.5C1686.3,1165.1,1686.1,1165.3,1685.8,1165.3z
				 M1676.2,1165.3h-4.8c-0.3,0-0.5-0.2-0.5-0.5c0-0.3,0.2-0.5,0.5-0.5h4.8c0.3,0,0.5,0.2,0.5,0.5
				C1676.6,1165.1,1676.4,1165.3,1676.2,1165.3z M1666.5,1165.3h-4.8c-0.3,0-0.5-0.2-0.5-0.5c0-0.3,0.2-0.5,0.5-0.5h4.8
				c0.3,0,0.5,0.2,0.5,0.5C1667,1165.1,1666.8,1165.3,1666.5,1165.3z"/>
		</g>
		<path class="st31" d="M1704.6,1176h-39.5c-1.1,0-2.1-0.9-2.1-2.1l0,0c0-1.1,0.9-2.1,2.1-2.1h39.5c1.1,0,2.1,0.9,2.1,2.1l0,0
			C1706.7,1175.1,1705.8,1176,1704.6,1176z"/>
		<path class="st31" d="M1646.5,1423.9h-39.5c-1.1,0-2.1-0.9-2.1-2.1l0,0c0-1.1,0.9-2.1,2.1-2.1h39.5c1.1,0,2.1,0.9,2.1,2.1l0,0
			C1648.6,1422.9,1647.7,1423.9,1646.5,1423.9z"/>
		<path class="st31" d="M1497,1327.8h-30.5c-1,0-1.9-0.8-1.9-1.9v-0.5c0-1,0.8-1.9,1.9-1.9h30.5c1,0,1.9,0.8,1.9,1.9v0.5
			C1498.9,1327,1498,1327.8,1497,1327.8z"/>
		<g>
			<path class="st31" d="M1509.7,1334.4c-0.2,0-0.3-0.1-0.4-0.2l-2.6-4.1c-0.2-0.2-0.1-0.6,0.2-0.7c0.2-0.2,0.6-0.1,0.7,0.2l2.6,4.1
				c0.2,0.2,0.1,0.6-0.2,0.7C1509.9,1334.4,1509.8,1334.4,1509.7,1334.4z M1504.4,1326.3c-0.2,0-0.3-0.1-0.4-0.2l-2.6-4.1
				c-0.2-0.2-0.1-0.6,0.2-0.7c0.2-0.2,0.6-0.1,0.7,0.2l2.6,4.1c0.2,0.2,0.1,0.6-0.2,0.7C1504.6,1326.3,1504.5,1326.3,1504.4,1326.3z
				 M1499.2,1318.3c-0.2,0-0.3-0.1-0.4-0.2h-4.3c-0.3,0-0.5-0.2-0.5-0.5s0.2-0.5,0.5-0.5h4.6c0.2,0,0.3,0.1,0.4,0.2l0.1,0.2
				c0.2,0.2,0.1,0.6-0.2,0.7C1499.4,1318.2,1499.3,1318.3,1499.2,1318.3z M1489.7,1318.1h-4.8c-0.3,0-0.5-0.2-0.5-0.5
				s0.2-0.5,0.5-0.5h4.8c0.3,0,0.5,0.2,0.5,0.5S1490,1318.1,1489.7,1318.1z M1480.1,1318.1h-4.8c-0.3,0-0.5-0.2-0.5-0.5
				s0.2-0.5,0.5-0.5h4.8c0.3,0,0.5,0.2,0.5,0.5S1480.3,1318.1,1480.1,1318.1z"/>
		</g>
	</g>
</g>
</svg>
